# Blender v2.91.2 OBJ File: ''
# www.blender.org
mtllib Path.mtl
o Cube.001
v 39.906895 1.000000 23.123583
o Cube_Cube.002
v -1.846684 -0.498374 -9.327108
v -1.846684 0.498374 -9.327108
v -1.846684 -0.498374 -1.846684
v -1.846684 0.498374 -1.846684
v 1.846684 -0.498374 1.846684
v 1.846684 0.498374 1.846684
v 1.846684 -0.498374 -1.846684
v 1.846684 0.498374 -1.846684
v 0.364668 -0.498374 1.846684
v -1.846684 -0.498374 -0.364668
v 0.259448 -0.498374 1.844179
v 0.154466 -0.498374 1.836671
v 0.049960 -0.498374 1.824176
v -0.053833 -0.498374 1.806722
v -0.156678 -0.498374 1.784350
v -0.258342 -0.498374 1.757109
v -0.358594 -0.498374 1.725062
v -0.457208 -0.498374 1.688280
v -0.553961 -0.498374 1.646849
v -0.648632 -0.498374 1.600860
v -0.741008 -0.498374 1.550419
v -0.830879 -0.498374 1.495640
v -0.918042 -0.498374 1.436646
v -1.002299 -0.498374 1.373572
v -1.083460 -0.498374 1.306560
v -1.161340 -0.498374 1.235763
v -1.235763 -0.498374 1.161340
v -1.306560 -0.498374 1.083460
v -1.373572 -0.498374 1.002299
v -1.436646 -0.498374 0.918042
v -1.495640 -0.498374 0.830879
v -1.550419 -0.498374 0.741008
v -1.600860 -0.498374 0.648632
v -1.646849 -0.498374 0.553961
v -1.688280 -0.498374 0.457208
v -1.725062 -0.498374 0.358594
v -1.757109 -0.498374 0.258342
v -1.784350 -0.498374 0.156678
v -1.806722 -0.498374 0.053833
v -1.824176 -0.498374 -0.049960
v -1.836671 -0.498374 -0.154466
v -1.844179 -0.498374 -0.259448
v -1.846684 0.498374 -0.364668
v 0.364668 0.498374 1.846684
v -1.844179 0.498374 -0.259448
v -1.836671 0.498374 -0.154466
v -1.824176 0.498374 -0.049960
v -1.806722 0.498374 0.053833
v -1.784350 0.498374 0.156678
v -1.757109 0.498374 0.258342
v -1.725062 0.498374 0.358594
v -1.688280 0.498374 0.457208
v -1.646849 0.498374 0.553961
v -1.600860 0.498374 0.648632
v -1.550419 0.498374 0.741008
v -1.495640 0.498374 0.830879
v -1.436646 0.498374 0.918042
v -1.373572 0.498374 1.002299
v -1.306560 0.498374 1.083460
v -1.235763 0.498374 1.161340
v -1.161340 0.498374 1.235763
v -1.083460 0.498374 1.306560
v -1.002299 0.498374 1.373572
v -0.918042 0.498374 1.436646
v -0.830879 0.498374 1.495640
v -0.741008 0.498374 1.550419
v -0.648632 0.498374 1.600860
v -0.553961 0.498374 1.646849
v -0.457208 0.498374 1.688280
v -0.358594 0.498374 1.725062
v -0.258342 0.498374 1.757109
v -0.156678 0.498374 1.784350
v -0.053833 0.498374 1.806722
v 0.049960 0.498374 1.824176
v 0.154466 0.498374 1.836671
v 0.259448 0.498374 1.844179
v 1.846684 -0.498374 -9.327108
v 1.846684 0.498374 -9.327108
v 10.609938 0.498374 -1.846684
v 10.609938 -0.498374 -1.846684
v 10.609938 -0.498374 1.846684
v 10.609938 0.498374 1.846684
v 1.846684 0.498374 -18.514572
v 1.846684 -0.498374 -18.514572
v -1.846684 -0.498374 -18.514572
v -1.846684 0.498374 -18.514572
v 1.846684 0.498374 -35.900455
v 1.846684 -0.498374 -35.900455
v -1.846684 -0.498374 -35.900455
v -1.846684 0.498374 -35.900455
v 55.663666 0.498374 -1.846684
v 55.663666 -0.498374 -1.846684
v 55.663666 -0.498374 1.846684
v 55.663666 0.498374 1.846684
v 1.846684 0.498374 -73.367813
v 1.846684 -0.498374 -73.367813
v -1.846684 -0.498374 -73.367813
v -1.846684 0.498374 -73.367813
vt 0.375000 0.750000
vt 0.625000 0.750000
vt 0.625000 0.850316
vt 0.375000 0.850316
vt 0.875000 0.500000
vt 0.625000 0.500000
vt 0.625000 0.500000
vt 0.875000 0.500000
vt 0.375000 0.500000
vt 0.375000 0.500000
vt 0.375000 0.750000
vt 0.875000 0.600316
vt 0.874830 0.607438
vt 0.874322 0.614544
vt 0.873476 0.621618
vt 0.872295 0.628644
vt 0.870781 0.635605
vt 0.868937 0.642487
vt 0.866767 0.649273
vt 0.864278 0.655948
vt 0.861473 0.662497
vt 0.858360 0.668905
vt 0.854946 0.675158
vt 0.851238 0.681241
vt 0.847245 0.687141
vt 0.842976 0.692845
vt 0.838440 0.698338
vt 0.833647 0.703610
vt 0.828610 0.708647
vt 0.823338 0.713440
vt 0.817845 0.717976
vt 0.812141 0.722245
vt 0.806241 0.726238
vt 0.800158 0.729946
vt 0.793905 0.733360
vt 0.787497 0.736473
vt 0.780948 0.739278
vt 0.774273 0.741768
vt 0.767487 0.743937
vt 0.760605 0.745781
vt 0.753644 0.747295
vt 0.746618 0.748476
vt 0.739544 0.749322
vt 0.732438 0.749830
vt 0.725316 0.750000
vt 0.375000 0.149684
vt 0.625000 0.149684
vt 0.625000 0.250000
vt 0.375000 0.250000
vt 0.375000 0.500000
vt 0.375000 0.500000
vt 0.625000 0.500000
vt 0.625000 0.857438
vt 0.375000 0.857438
vt 0.625000 0.864544
vt 0.375000 0.864544
vt 0.625000 0.871618
vt 0.375000 0.871618
vt 0.625000 0.878644
vt 0.375000 0.878644
vt 0.625000 0.885605
vt 0.375000 0.885605
vt 0.625000 0.892487
vt 0.375000 0.892487
vt 0.625000 0.899273
vt 0.375000 0.899273
vt 0.625000 0.905948
vt 0.375000 0.905948
vt 0.625000 0.912497
vt 0.375000 0.912497
vt 0.625000 0.918905
vt 0.375000 0.918905
vt 0.625000 0.925158
vt 0.375000 0.925158
vt 0.625000 0.931241
vt 0.375000 0.931241
vt 0.625000 0.937141
vt 0.375000 0.937141
vt 0.625000 0.942845
vt 0.375000 0.942845
vt 0.625000 0.948338
vt 0.375000 0.948338
vt 0.625000 0.953610
vt 0.375000 0.953610
vt 0.375000 0.000000
vt 0.625000 0.000000
vt 0.625000 0.046390
vt 0.375000 0.046390
vt 0.625000 0.051662
vt 0.375000 0.051662
vt 0.625000 0.057155
vt 0.375000 0.057155
vt 0.625000 0.062859
vt 0.375000 0.062859
vt 0.625000 0.068759
vt 0.375000 0.068759
vt 0.625000 0.074842
vt 0.375000 0.074842
vt 0.625000 0.081095
vt 0.375000 0.081095
vt 0.625000 0.087503
vt 0.375000 0.087503
vt 0.625000 0.094052
vt 0.375000 0.094052
vt 0.625000 0.100727
vt 0.375000 0.100727
vt 0.625000 0.107513
vt 0.375000 0.107513
vt 0.625000 0.114395
vt 0.375000 0.114395
vt 0.625000 0.121356
vt 0.375000 0.121356
vt 0.625000 0.128382
vt 0.375000 0.128382
vt 0.625000 0.135456
vt 0.375000 0.135456
vt 0.625000 0.142562
vt 0.375000 0.142562
vt 0.125000 0.500000
vt 0.274684 0.750000
vt 0.267562 0.749830
vt 0.260456 0.749322
vt 0.253382 0.748476
vt 0.246356 0.747295
vt 0.239395 0.745781
vt 0.232513 0.743937
vt 0.225727 0.741768
vt 0.219052 0.739278
vt 0.212503 0.736473
vt 0.206095 0.733360
vt 0.199842 0.729946
vt 0.193759 0.726238
vt 0.187859 0.722245
vt 0.182156 0.717976
vt 0.176662 0.713440
vt 0.171390 0.708647
vt 0.166353 0.703610
vt 0.161560 0.698338
vt 0.157024 0.692845
vt 0.152755 0.687141
vt 0.148762 0.681241
vt 0.145054 0.675158
vt 0.141640 0.668905
vt 0.138527 0.662497
vt 0.135722 0.655948
vt 0.133232 0.649273
vt 0.131063 0.642487
vt 0.129219 0.635605
vt 0.127705 0.628644
vt 0.126524 0.621618
vt 0.125678 0.614544
vt 0.125170 0.607438
vt 0.125000 0.600316
vt 0.625000 0.250000
vt 0.375000 0.250000
vt 0.125000 0.500000
vt 0.625000 0.500000
vt 0.625000 0.750000
vt 0.625000 0.750000
vt 0.625000 0.500000
vt 0.375000 0.500000
vt 0.625000 0.500000
vt 0.875000 0.500000
vt 0.125000 0.500000
vt 0.625000 0.250000
vt 0.375000 0.250000
vt 0.125000 0.500000
vt 0.125000 0.500000
vt 0.375000 0.500000
vt 0.625000 0.250000
vt 0.375000 0.250000
vt 0.875000 0.500000
vt 0.375000 0.500000
vt 0.375000 0.750000
vt 0.375000 0.250000
vt 0.625000 0.250000
vt 0.625000 0.500000
vt 0.875000 0.500000
vn 0.0000 0.0000 1.0000
vn 0.0000 1.0000 0.0000
vn 0.0000 -1.0000 0.0000
vn -1.0000 0.0000 0.0000
vn 1.0000 0.0000 0.0000
vn -0.0238 0.0000 0.9997
vn -0.0713 0.0000 0.9975
vn -0.1187 0.0000 0.9929
vn -0.1658 0.0000 0.9862
vn -0.2126 0.0000 0.9771
vn -0.2588 0.0000 0.9659
vn -0.3045 0.0000 0.9525
vn -0.3495 0.0000 0.9369
vn -0.3937 0.0000 0.9193
vn -0.4369 0.0000 0.8995
vn -0.4792 0.0000 0.8777
vn -0.5205 0.0000 0.8539
vn -0.5605 0.0000 0.8281
vn -0.5993 0.0000 0.8005
vn -0.6367 0.0000 0.7711
vn -0.6727 0.0000 0.7400
vn -0.7071 0.0000 0.7071
vn -0.7400 0.0000 0.6727
vn -0.7711 0.0000 0.6367
vn -0.8005 0.0000 0.5993
vn -0.8281 0.0000 0.5605
vn -0.8539 0.0000 0.5205
vn -0.8777 0.0000 0.4792
vn -0.8995 0.0000 0.4369
vn -0.9193 0.0000 0.3937
vn -0.9369 0.0000 0.3495
vn -0.9525 0.0000 0.3045
vn -0.9659 0.0000 0.2588
vn -0.9771 0.0000 0.2126
vn -0.9862 0.0000 0.1658
vn -0.9929 0.0000 0.1187
vn -0.9975 0.0000 0.0713
vn -0.9997 0.0000 0.0238
vn 0.0000 0.0000 -1.0000
usemtl None
s off
f 6/1/1 7/2/1 45/3/1 10/4/1
f 5/5/2 9/6/2 79/7/2 3/8/2
f 6/1/3 8/9/3 81/10/3 82/11/3
f 9/6/2 5/5/2 44/12/2 46/13/2 47/14/2 48/15/2 49/16/2 50/17/2 51/18/2 52/19/2 53/20/2 54/21/2 55/22/2 56/23/2 57/24/2 58/25/2 59/26/2 60/27/2 61/28/2 62/29/2 63/30/2 64/31/2 65/32/2 66/33/2 67/34/2 68/35/2 69/36/2 70/37/2 71/38/2 72/39/2 73/40/2 74/41/2 75/42/2 76/43/2 77/44/2 45/45/2 7/2/2
f 11/46/4 44/47/4 5/48/4 4/49/4
f 79/7/5 78/50/5 85/51/5 84/52/5
f 10/4/6 45/3/6 77/53/6 12/54/6
f 12/54/7 77/53/7 76/55/7 13/56/7
f 13/56/8 76/55/8 75/57/8 14/58/8
f 14/58/9 75/57/9 74/59/9 15/60/9
f 15/60/10 74/59/10 73/61/10 16/62/10
f 16/62/11 73/61/11 72/63/11 17/64/11
f 17/64/12 72/63/12 71/65/12 18/66/12
f 18/66/13 71/65/13 70/67/13 19/68/13
f 19/68/14 70/67/14 69/69/14 20/70/14
f 20/70/15 69/69/15 68/71/15 21/72/15
f 21/72/16 68/71/16 67/73/16 22/74/16
f 22/74/17 67/73/17 66/75/17 23/76/17
f 23/76/18 66/75/18 65/77/18 24/78/18
f 24/78/19 65/77/19 64/79/19 25/80/19
f 25/80/20 64/79/20 63/81/20 26/82/20
f 26/82/21 63/81/21 62/83/21 27/84/21
f 27/85/22 62/86/22 61/87/22 28/88/22
f 28/88/23 61/87/23 60/89/23 29/90/23
f 29/90/24 60/89/24 59/91/24 30/92/24
f 30/92/25 59/91/25 58/93/25 31/94/25
f 31/94/26 58/93/26 57/95/26 32/96/26
f 32/96/27 57/95/27 56/97/27 33/98/27
f 33/98/28 56/97/28 55/99/28 34/100/28
f 34/100/29 55/99/29 54/101/29 35/102/29
f 35/102/30 54/101/30 53/103/30 36/104/30
f 36/104/31 53/103/31 52/105/31 37/106/31
f 37/106/32 52/105/32 51/107/32 38/108/32
f 38/108/33 51/107/33 50/109/33 39/110/33
f 39/110/34 50/109/34 49/111/34 40/112/34
f 40/112/35 49/111/35 48/113/35 41/114/35
f 41/114/36 48/113/36 47/115/36 42/116/36
f 42/116/37 47/115/37 46/117/37 43/118/37
f 43/118/38 46/117/38 44/47/38 11/46/38
f 4/119/3 8/9/3 6/1/3 10/120/3 12/121/3 13/122/3 14/123/3 15/124/3 16/125/3 17/126/3 18/127/3 19/128/3 20/129/3 21/130/3 22/131/3 23/132/3 24/133/3 25/134/3 26/135/3 27/136/3 28/137/3 29/138/3 30/139/3 31/140/3 32/141/3 33/142/3 34/143/3 35/144/3 36/145/3 37/146/3 38/147/3 39/148/3 40/149/3 41/150/3 42/151/3 43/152/3 11/153/3
f 4/49/4 5/48/4 3/154/4 2/155/4
f 9/6/5 8/9/5 78/50/5 79/7/5
f 8/9/3 4/119/3 2/156/3 78/50/3
f 80/157/2 83/158/2 95/159/2 92/160/2
f 9/6/2 7/2/2 83/158/2 80/157/2
f 8/9/39 9/6/39 80/157/39 81/10/39
f 7/2/1 6/1/1 82/11/1 83/158/1
f 84/52/5 85/51/5 89/161/5 88/162/5
f 3/8/2 79/7/2 84/52/2 87/163/2
f 78/50/3 2/156/3 86/164/3 85/51/3
f 2/155/4 3/154/4 87/165/4 86/166/4
f 89/161/3 90/167/3 98/168/3 97/169/3
f 86/166/4 87/165/4 91/170/4 90/171/4
f 85/51/3 86/164/3 90/167/3 89/161/3
f 87/163/2 84/52/2 88/162/2 91/172/2
f 93/173/5 92/160/5 95/159/5 94/174/5
f 81/10/39 80/157/39 92/160/39 93/173/39
f 83/158/1 82/11/1 94/174/1 95/159/1
f 82/11/3 81/10/3 93/173/3 94/174/3
f 98/175/39 99/176/39 96/177/39 97/169/39
f 91/172/2 88/162/2 96/177/2 99/178/2
f 88/162/5 89/161/5 97/169/5 96/177/5
f 90/171/4 91/170/4 99/176/4 98/175/4
