g path
v 34.58113 0 42.23996
v 33.94062 0 39.06922
v 34.91616 0 38.8494
v 35.56486 0 42.06034
v 35.20172 0 46.00489
v 36.19088 0 45.85804
v 35.75185 0 50.17795
v 36.74525 0 50.06324
v 36.18156 0 54.57358
v 37.17842 0 54.49448
v 36.44117 0 59.00693
v 37.44052 0 58.97095
v 36.48148 0 63.29215
v 37.48127 0 63.31275
v 36.25436 1.907349E-06 67.24073
v 37.24928 1.907349E-06 67.34144
v 35.71505 1.907349E-06 70.66013
v 36.68975 1.907349E-06 70.88371
v 34.83089 0 73.34913
v 35.73589 0 73.77457
v 33.54619 0 75.39149
v 34.32041 0 76.02439
v 31.86465 0 77.02149
v 32.47768 0 77.8115
v 29.83948 0 78.29966
v 30.29643 0 79.18919
v 27.53123 0 79.27479
v 27.85809 0 80.21989
v 25.00843 0 79.99503
v 25.23608 0 80.96879
v 22.34329 0 80.51048
v 22.50014 0 81.49815
v 19.60867 1.907349E-06 80.87431
v 19.71938 1.907349E-06 81.8682
v 16.87675 1.907349E-06 81.14054
v 16.96358 1.907349E-06 82.13673
v 14.21853 0 81.36475
v 14.30369 0 82.36112
v 11.51578 0 81.5247
v 11.55059 0 82.52409
v 8.594579 0 81.55701
v 8.582543 0 82.55686
v 5.53665 0 81.44798
v 5.477374 0 82.44627
v 2.423357 0 81.18467
v 2.313269 0 82.17857
v -0.6639144 0 80.75401
v -0.8316138 0 81.73985
v -3.643492 0 80.1439
v -3.879399 0 81.11573
v -6.433184 1.907349E-06 79.34327
v -6.752731 1.907349E-06 80.29075
v -8.950262 1.907349E-06 78.34214
v -9.374802 1.907349E-06 79.2476
v -11.11212 0 77.13529
v -11.66866 0 77.96604
v -13.00493 0 75.66615
v -13.66921 0 76.41358
v -14.738 0 73.92307
v -15.48726 0 74.58537
v -16.30382 0 71.94389
v -17.11926 0 72.52268
v -17.69487 0 69.76731
v -18.5617 0 70.266
v -18.90394 0 67.4329
v -19.81074 0 67.85441
v -19.92423 0 64.98057
v -20.86214 0 65.32737
v -20.74931 1.907349E-06 62.45069
v -21.7113 1.907349E-06 62.72379
v -21.37313 1.907349E-06 59.88364
v -22.35321 1.907349E-06 60.08231
v -21.78997 0 57.31998
v -22.78258 0 57.44129
v -21.96111 0 54.62815
v -22.96102 0 54.64151
v -21.87492 0 51.66687
v -22.87268 0 51.59995
v -21.56038 0 48.53055
v -22.55189 0 48.40055
v -21.04818 0 45.31211
v -22.03132 0 45.12928
v -20.36973 0 42.10291
v -21.34286 0 41.87265
v -19.55686 0 38.99442
v -20.51802 0 38.71839
v -18.64181 1.907349E-06 36.07773
v -19.5879 1.907349E-06 35.75391
v -17.65749 1.907349E-06 33.44431
v -18.5829 1.907349E-06 33.06528
v -16.63844 0 31.18808
v -17.53181 0 30.73874
v -15.53013 0 29.30008
v -16.35761 0 28.7385
v -14.25573 0 27.65158
v -15.00804 0 26.99277
v -12.8452 0 26.21301
v -13.52013 0 25.4751
v -11.3287 0 24.95581
v -11.93072 0 24.15738
v -9.737162 0 23.85269
v -10.27587 0 23.01013
v -8.102385 0 22.87692
v -8.590782 0 22.00424
v -6.456722 1.907349E-06 22.0015
v -6.910103 1.907349E-06 21.11014
v -4.832715 1.907349E-06 21.19895
v -5.26829 1.907349E-06 20.2988
v -3.262736 0 20.44144
v -3.69996 0 19.54212
v -1.761853 0 19.7732
v -2.137423 0 18.84641
v -0.2522496 0 19.21921
v -0.5651767 0 18.26944
v 1.263499 0 18.77445
v 1.013379 0 17.80618
v 2.782803 0 18.43332
v 2.594857 0 17.45114
v 4.303034 0 18.1908
v 4.175914 0 17.19882
v 5.821495 0 18.04184
v 5.753264 0 17.04419
v 7.335413 1.907349E-06 17.98169
v 7.323708 1.907349E-06 16.98184
v 8.841966 1.907349E-06 18.00485
v 8.884094 1.907349E-06 17.00574
v 10.33825 0 18.10666
v 10.43134 0 17.11112
v 11.84827 0 18.26889
v 11.97066 0 17.27646
v 13.36615 0 18.48606
v 13.5285 0 17.49939
v 14.88255 0 18.77426
v 15.09527 0 17.79712
v 16.38825 0 19.15
v 16.66129 0 18.18796
v 17.87425 0 19.62955
v 18.21665 0 18.68994
v 19.33193 0 20.22922
v 19.75106 0 19.32129
v 20.75312 1.907349E-06 20.9653
v 21.25379 1.907349E-06 20.09976
v 22.13007 1.907349E-06 21.85474
v 22.71365 1.907349E-06 21.04276
v 23.45527 0 22.91501
v 24.11926 0 22.16721
v 24.80672 0 24.1301
v 25.48233 0 23.39282
v 26.17502 0 25.42493
v 26.87599 0 24.71164
v 27.53273 0 26.82752
v 28.26988 0 26.15177
v 28.85264 0 28.36496
v 29.63338 0 27.74011
v 30.10781 0 30.06528
v 30.93563 0 29.50424
v 31.2714 0 31.95703
v 32.14564 0 31.47153
v 32.31647 1.907349E-06 34.06833
v 33.23254 1.907349E-06 33.66733
v 33.21558 1.907349E-06 36.4292
v 34.16596 1.907349E-06 36.1182
v 33.94062 0 39.06922
v 34.91616 0 38.8494

vn 0 1 0
vn 0 1 0
vn 0 1 0
vn 0 1 0
vn 0 1 0
vn 0 1 0
vn 0 1 0
vn 0 1 0
vn 0 1 0
vn 0 1 0
vn 0 1 0
vn 0 1 0
vn 0 1 0
vn 0 1 0
vn 0 1 0
vn 0 1 0
vn 0 1 0
vn 0 1 0
vn 0 1 0
vn 0 1 0
vn 0 1 0
vn 0 1 0
vn 0 1 0
vn 0 1 0
vn 0 1 0
vn 0 1 0
vn 0 1 0
vn 0 1 0
vn 0 1 0
vn 0 1 0
vn 0 1 0
vn 0 1 0
vn 0 1 0
vn 0 1 0
vn 0 1 0
vn 0 1 0
vn 0 1 0
vn 0 1 0
vn 0 1 0
vn 0 1 0
vn 0 1 0
vn 0 1 0
vn 0 1 0
vn 0 1 0
vn 0 1 0
vn 0 1 0
vn 0 1 0
vn 0 1 0
vn 0 1 0
vn 0 1 0
vn 0 1 0
vn 0 1 0
vn 0 1 0
vn 0 1 0
vn 0 1 0
vn 0 1 0
vn 0 1 0
vn 0 1 0
vn 0 1 0
vn 0 1 0
vn 0 1 0
vn 0 1 0
vn 0 1 0
vn 0 1 0
vn 0 1 0
vn 0 1 0
vn 0 1 0
vn 0 1 0
vn 0 1 0
vn 0 1 0
vn 0 1 0
vn 0 1 0
vn 0 1 0
vn 0 1 0
vn 0 1 0
vn 0 1 0
vn 0 1 0
vn 0 1 0
vn 0 1 0
vn 0 1 0
vn 0 1 0
vn 0 1 0
vn 0 1 0
vn 0 1 0
vn 0 1 0
vn 0 1 0
vn 0 1 0
vn 0 1 0
vn 0 1 0
vn 0 1 0
vn 0 1 0
vn 0 1 0
vn 0 1 0
vn 0 1 0
vn 0 1 0
vn 0 1 0
vn 0 1 0
vn 0 1 0
vn 0 1 0
vn 0 1 0
vn 0 1 0
vn 0 1 0
vn 0 1 0
vn 0 1 0
vn 0 1 0
vn 0 1 0
vn 0 1 0
vn 0 1 0
vn 0 1 0
vn 0 1 0
vn 0 1 0
vn 0 1 0
vn 0 1 0
vn 0 1 0
vn 0 1 0
vn 0 1 0
vn 0 1 0
vn 0 1 0
vn 0 1 0
vn 0 1 0
vn 0 1 0
vn 0 1 0
vn 0 1 0
vn 0 1 0
vn 0 1 0
vn 0 1 0
vn 0 1 0
vn 0 1 0
vn 0 1 0
vn 0 1 0
vn 0 1 0
vn 0 1 0
vn 0 1 0
vn 0 1 0
vn 0 1 0
vn 0 1 0
vn 0 1 0
vn 0 1 0
vn 0 1 0
vn 0 1 0
vn 0 1 0
vn 0 1 0
vn 0 1 0
vn 0 1 0
vn 0 1 0
vn 0 1 0
vn 0 1 0
vn 0 1 0
vn 0 1 0
vn 0 1 0
vn 0 1 0
vn 0 1 0
vn 0 1 0
vn 0 1 0
vn 0 1 0
vn 0 1 0
vn 0 1 0
vn 0 1 0
vn 0 1 0
vn 0 1 0
vn 0 1 0
vn 0 1 0
vn 0 1 0
vn 0 1 0

vt 0 0.9876543
vt 0 1
vt 1 1
vt 1 0.9876543
vt 0 0.9753087
vt 1 0.9753087
vt 0 0.962963
vt 1 0.962963
vt 0 0.9506173
vt 1 0.9506173
vt 0 0.9382716
vt 1 0.9382716
vt 0 0.9259259
vt 1 0.9259259
vt 0 0.9135802
vt 1 0.9135802
vt 0 0.9012346
vt 1 0.9012346
vt 0 0.8888889
vt 1 0.8888889
vt 0 0.8765432
vt 1 0.8765432
vt 0 0.8641976
vt 1 0.8641976
vt 0 0.8518518
vt 1 0.8518518
vt 0 0.8395061
vt 1 0.8395061
vt 0 0.8271605
vt 1 0.8271605
vt 0 0.8148148
vt 1 0.8148148
vt 0 0.8024691
vt 1 0.8024691
vt 0 0.7901235
vt 1 0.7901235
vt 0 0.7777778
vt 1 0.7777778
vt 0 0.7654321
vt 1 0.7654321
vt 0 0.7530864
vt 1 0.7530864
vt 0 0.7407408
vt 1 0.7407408
vt 0 0.7283951
vt 1 0.7283951
vt 0 0.7160494
vt 1 0.7160494
vt 0 0.7037037
vt 1 0.7037037
vt 0 0.691358
vt 1 0.691358
vt 0 0.6790124
vt 1 0.6790124
vt 0 0.6666666
vt 1 0.6666666
vt 0 0.654321
vt 1 0.654321
vt 0 0.6419753
vt 1 0.6419753
vt 0 0.6296296
vt 1 0.6296296
vt 0 0.6172839
vt 1 0.6172839
vt 0 0.6049383
vt 1 0.6049383
vt 0 0.5925926
vt 1 0.5925926
vt 0 0.5802469
vt 1 0.5802469
vt 0 0.5679013
vt 1 0.5679013
vt 0 0.5555556
vt 1 0.5555556
vt 0 0.5432099
vt 1 0.5432099
vt 0 0.5308642
vt 1 0.5308642
vt 0 0.5185185
vt 1 0.5185185
vt 0 0.5061728
vt 1 0.5061728
vt 0 0.4938272
vt 1 0.4938272
vt 0 0.4814815
vt 1 0.4814815
vt 0 0.4691358
vt 1 0.4691358
vt 0 0.4567901
vt 1 0.4567901
vt 0 0.4444444
vt 1 0.4444444
vt 0 0.4320987
vt 1 0.4320987
vt 0 0.4197531
vt 1 0.4197531
vt 0 0.4074074
vt 1 0.4074074
vt 0 0.3950617
vt 1 0.3950617
vt 0 0.3827161
vt 1 0.3827161
vt 0 0.3703704
vt 1 0.3703704
vt 0 0.3580247
vt 1 0.3580247
vt 0 0.345679
vt 1 0.345679
vt 0 0.3333333
vt 1 0.3333333
vt 0 0.3209876
vt 1 0.3209876
vt 0 0.308642
vt 1 0.308642
vt 0 0.2962963
vt 1 0.2962963
vt 0 0.2839506
vt 1 0.2839506
vt 0 0.271605
vt 1 0.271605
vt 0 0.2592593
vt 1 0.2592593
vt 0 0.2469136
vt 1 0.2469136
vt 0 0.2345679
vt 1 0.2345679
vt 0 0.2222222
vt 1 0.2222222
vt 0 0.2098765
vt 1 0.2098765
vt 0 0.1975309
vt 1 0.1975309
vt 0 0.1851852
vt 1 0.1851852
vt 0 0.1728395
vt 1 0.1728395
vt 0 0.1604939
vt 1 0.1604939
vt 0 0.1481481
vt 1 0.1481481
vt 0 0.1358024
vt 1 0.1358024
vt 0 0.1234568
vt 1 0.1234568
vt 0 0.1111111
vt 1 0.1111111
vt 0 0.09876543
vt 1 0.09876543
vt 0 0.08641976
vt 1 0.08641976
vt 0 0.07407409
vt 1 0.07407409
vt 0 0.06172842
vt 1 0.06172842
vt 0 0.04938269
vt 1 0.04938269
vt 0 0.03703701
vt 1 0.03703701
vt 0 0.02469134
vt 1 0.02469134
vt 0 0.01234567
vt 1 0.01234567
vt 0 0
vt 1 0




usemtl Default-Diffuse
usemap Default-Diffuse
f 3/3/3 2/2/2 1/1/1
f 4/4/4 3/3/3 1/1/1
f 4/4/4 1/1/1 5/5/5
f 6/6/6 4/4/4 5/5/5
f 6/6/6 5/5/5 7/7/7
f 8/8/8 6/6/6 7/7/7
f 8/8/8 7/7/7 9/9/9
f 10/10/10 8/8/8 9/9/9
f 10/10/10 9/9/9 11/11/11
f 12/12/12 10/10/10 11/11/11
f 12/12/12 11/11/11 13/13/13
f 14/14/14 12/12/12 13/13/13
f 14/14/14 13/13/13 15/15/15
f 16/16/16 14/14/14 15/15/15
f 16/16/16 15/15/15 17/17/17
f 18/18/18 16/16/16 17/17/17
f 18/18/18 17/17/17 19/19/19
f 20/20/20 18/18/18 19/19/19
f 20/20/20 19/19/19 21/21/21
f 22/22/22 20/20/20 21/21/21
f 22/22/22 21/21/21 23/23/23
f 24/24/24 22/22/22 23/23/23
f 24/24/24 23/23/23 25/25/25
f 26/26/26 24/24/24 25/25/25
f 26/26/26 25/25/25 27/27/27
f 28/28/28 26/26/26 27/27/27
f 28/28/28 27/27/27 29/29/29
f 30/30/30 28/28/28 29/29/29
f 30/30/30 29/29/29 31/31/31
f 32/32/32 30/30/30 31/31/31
f 32/32/32 31/31/31 33/33/33
f 34/34/34 32/32/32 33/33/33
f 34/34/34 33/33/33 35/35/35
f 36/36/36 34/34/34 35/35/35
f 36/36/36 35/35/35 37/37/37
f 38/38/38 36/36/36 37/37/37
f 38/38/38 37/37/37 39/39/39
f 40/40/40 38/38/38 39/39/39
f 40/40/40 39/39/39 41/41/41
f 42/42/42 40/40/40 41/41/41
f 42/42/42 41/41/41 43/43/43
f 44/44/44 42/42/42 43/43/43
f 44/44/44 43/43/43 45/45/45
f 46/46/46 44/44/44 45/45/45
f 46/46/46 45/45/45 47/47/47
f 48/48/48 46/46/46 47/47/47
f 48/48/48 47/47/47 49/49/49
f 50/50/50 48/48/48 49/49/49
f 50/50/50 49/49/49 51/51/51
f 52/52/52 50/50/50 51/51/51
f 52/52/52 51/51/51 53/53/53
f 54/54/54 52/52/52 53/53/53
f 54/54/54 53/53/53 55/55/55
f 56/56/56 54/54/54 55/55/55
f 56/56/56 55/55/55 57/57/57
f 58/58/58 56/56/56 57/57/57
f 58/58/58 57/57/57 59/59/59
f 60/60/60 58/58/58 59/59/59
f 60/60/60 59/59/59 61/61/61
f 62/62/62 60/60/60 61/61/61
f 62/62/62 61/61/61 63/63/63
f 64/64/64 62/62/62 63/63/63
f 64/64/64 63/63/63 65/65/65
f 66/66/66 64/64/64 65/65/65
f 66/66/66 65/65/65 67/67/67
f 68/68/68 66/66/66 67/67/67
f 68/68/68 67/67/67 69/69/69
f 70/70/70 68/68/68 69/69/69
f 70/70/70 69/69/69 71/71/71
f 72/72/72 70/70/70 71/71/71
f 72/72/72 71/71/71 73/73/73
f 74/74/74 72/72/72 73/73/73
f 74/74/74 73/73/73 75/75/75
f 76/76/76 74/74/74 75/75/75
f 76/76/76 75/75/75 77/77/77
f 78/78/78 76/76/76 77/77/77
f 78/78/78 77/77/77 79/79/79
f 80/80/80 78/78/78 79/79/79
f 80/80/80 79/79/79 81/81/81
f 82/82/82 80/80/80 81/81/81
f 82/82/82 81/81/81 83/83/83
f 84/84/84 82/82/82 83/83/83
f 84/84/84 83/83/83 85/85/85
f 86/86/86 84/84/84 85/85/85
f 86/86/86 85/85/85 87/87/87
f 88/88/88 86/86/86 87/87/87
f 88/88/88 87/87/87 89/89/89
f 90/90/90 88/88/88 89/89/89
f 90/90/90 89/89/89 91/91/91
f 92/92/92 90/90/90 91/91/91
f 92/92/92 91/91/91 93/93/93
f 94/94/94 92/92/92 93/93/93
f 94/94/94 93/93/93 95/95/95
f 96/96/96 94/94/94 95/95/95
f 96/96/96 95/95/95 97/97/97
f 98/98/98 96/96/96 97/97/97
f 98/98/98 97/97/97 99/99/99
f 100/100/100 98/98/98 99/99/99
f 100/100/100 99/99/99 101/101/101
f 102/102/102 100/100/100 101/101/101
f 102/102/102 101/101/101 103/103/103
f 104/104/104 102/102/102 103/103/103
f 104/104/104 103/103/103 105/105/105
f 106/106/106 104/104/104 105/105/105
f 106/106/106 105/105/105 107/107/107
f 108/108/108 106/106/106 107/107/107
f 108/108/108 107/107/107 109/109/109
f 110/110/110 108/108/108 109/109/109
f 110/110/110 109/109/109 111/111/111
f 112/112/112 110/110/110 111/111/111
f 112/112/112 111/111/111 113/113/113
f 114/114/114 112/112/112 113/113/113
f 114/114/114 113/113/113 115/115/115
f 116/116/116 114/114/114 115/115/115
f 116/116/116 115/115/115 117/117/117
f 118/118/118 116/116/116 117/117/117
f 118/118/118 117/117/117 119/119/119
f 120/120/120 118/118/118 119/119/119
f 120/120/120 119/119/119 121/121/121
f 122/122/122 120/120/120 121/121/121
f 122/122/122 121/121/121 123/123/123
f 124/124/124 122/122/122 123/123/123
f 124/124/124 123/123/123 125/125/125
f 126/126/126 124/124/124 125/125/125
f 126/126/126 125/125/125 127/127/127
f 128/128/128 126/126/126 127/127/127
f 128/128/128 127/127/127 129/129/129
f 130/130/130 128/128/128 129/129/129
f 130/130/130 129/129/129 131/131/131
f 132/132/132 130/130/130 131/131/131
f 132/132/132 131/131/131 133/133/133
f 134/134/134 132/132/132 133/133/133
f 134/134/134 133/133/133 135/135/135
f 136/136/136 134/134/134 135/135/135
f 136/136/136 135/135/135 137/137/137
f 138/138/138 136/136/136 137/137/137
f 138/138/138 137/137/137 139/139/139
f 140/140/140 138/138/138 139/139/139
f 140/140/140 139/139/139 141/141/141
f 142/142/142 140/140/140 141/141/141
f 142/142/142 141/141/141 143/143/143
f 144/144/144 142/142/142 143/143/143
f 144/144/144 143/143/143 145/145/145
f 146/146/146 144/144/144 145/145/145
f 146/146/146 145/145/145 147/147/147
f 148/148/148 146/146/146 147/147/147
f 148/148/148 147/147/147 149/149/149
f 150/150/150 148/148/148 149/149/149
f 150/150/150 149/149/149 151/151/151
f 152/152/152 150/150/150 151/151/151
f 152/152/152 151/151/151 153/153/153
f 154/154/154 152/152/152 153/153/153
f 154/154/154 153/153/153 155/155/155
f 156/156/156 154/154/154 155/155/155
f 156/156/156 155/155/155 157/157/157
f 158/158/158 156/156/156 157/157/157
f 158/158/158 157/157/157 159/159/159
f 160/160/160 158/158/158 159/159/159
f 160/160/160 159/159/159 161/161/161
f 162/162/162 160/160/160 161/161/161
f 162/162/162 161/161/161 163/163/163
f 164/164/164 162/162/162 163/163/163
